<svg width="26" height="42" viewBox="0 0 26 42" fill="none" xmlns="http://www.w3.org/2000/svg">
<path d="M21.675 0H3.825C1.67344 0 0 1.80469 0 3.9375V38.0625C0 40.2773 1.67344 42 3.825 42H21.675C23.7469 42 25.5 40.2773 25.5 38.0625V3.9375C25.5 1.80469 23.7469 0 21.675 0ZM12.75 39.375C11.3156 39.375 10.2 38.2266 10.2 36.75C10.2 35.3555 11.3156 34.125 12.75 34.125C14.1047 34.125 15.3 35.3555 15.3 36.75C15.3 38.2266 14.1047 39.375 12.75 39.375ZM21.675 30.5156C21.675 31.0898 21.1969 31.5 20.7188 31.5H4.78125C4.22344 31.5 3.825 31.0898 3.825 30.5156V4.92188C3.825 4.42969 4.22344 3.9375 4.78125 3.9375H20.7188C21.1969 3.9375 21.675 4.42969 21.675 4.92188V30.5156Z" fill="#686868"/>
</svg>
