<svg width="46" height="46" viewBox="0 0 46 46" fill="none" xmlns="http://www.w3.org/2000/svg">
<path d="M29.1719 1.5H29.1641L29.1564 1.50008C20.7649 1.58659 14 8.34054 14 16.75C14 18.1475 14.1711 19.4271 14.4603 20.6684L2.48621 32.6425C1.78483 33.3438 1.5 34.2084 1.5 35.0312V41.125C1.5 43.0472 2.95282 44.5 4.875 44.5H13.625C15.4278 44.5 17 43.0879 17 41.125V39.5H18.625C20.4278 39.5 22 38.0879 22 36.125V34.5H23.3906C24.412 34.5 25.2449 34.0483 25.8575 33.4357L25.8887 33.4045L25.918 33.3715L27.2454 31.8782C27.8843 31.9604 28.5531 32 29.25 32C37.6454 32 44.5 25.2458 44.5 16.8281C44.5 8.34345 37.6566 1.5 29.1719 1.5ZM30.75 13C30.75 11.7768 31.7393 10.75 33 10.75C34.2028 10.75 35.25 11.7972 35.25 13C35.25 14.2607 34.2232 15.25 33 15.25C31.7191 15.25 30.75 14.2809 30.75 13Z" fill="white" stroke="#686868" stroke-width="3"/>
</svg>
