<svg width="22" height="23" viewBox="0 0 22 23" fill="none" xmlns="http://www.w3.org/2000/svg">
<path d="M13.679 0.5V0.499974L13.674 0.500026C9.73882 0.53997 6.55566 3.6597 6.55566 7.55875C6.55566 8.24957 6.647 8.87891 6.80053 9.49328L0.914133 15.2891C0.620228 15.5785 0.5 15.9349 0.5 16.2789V19.1856C0.5 19.9908 1.10967 20.58 1.90835 20.58H6.14731C6.89428 20.58 7.55566 20.0042 7.55566 19.1856V18.195H8.56958C9.31655 18.195 9.97793 17.6192 9.97793 16.8006V15.81H10.8783C11.2987 15.81 11.6464 15.6281 11.9104 15.3682L11.9208 15.3578L11.9307 15.3469L12.6548 14.5448C12.989 14.5937 13.3433 14.6175 13.7169 14.6175C17.6532 14.6175 20.8781 11.4979 20.8781 7.59602C20.8781 3.66056 17.6569 0.5 13.679 0.5ZM14.2169 5.77C14.2169 5.07776 14.7873 4.48125 15.5336 4.48125C16.2488 4.48125 16.8503 5.08452 16.8503 5.77C16.8503 6.48605 16.2557 7.05875 15.5336 7.05875C14.7805 7.05875 14.2169 6.49275 14.2169 5.77Z" fill="white" stroke="#A6193C"/>
<path d="M20.2248 17.3516L20.2181 17.3475L20.2113 17.3437L19.7481 17.0858C19.7738 16.8419 19.7738 16.6 19.7481 16.3561L20.2113 16.0982L20.2181 16.0944L20.2248 16.0904C20.5082 15.9207 20.6455 15.5714 20.5309 15.2509C20.3108 14.5405 19.935 13.9133 19.4666 13.3876L19.4568 13.3766L19.4464 13.3662C19.2266 13.1469 18.8749 13.0776 18.5773 13.2505L18.1014 13.5155C17.9082 13.3789 17.7033 13.258 17.4867 13.1558V12.616C17.4867 12.2757 17.2356 11.9954 16.913 11.9311C16.1768 11.7548 15.4459 11.7758 14.7624 11.9301C14.378 12.0033 14.2017 12.3395 14.2017 12.616V13.1513C13.976 13.2551 13.765 13.3799 13.5666 13.525L13.0981 13.2533C12.7994 13.0769 12.4452 13.1457 12.2242 13.3662L12.2138 13.3766L12.204 13.3876C11.7356 13.9133 11.3598 14.5405 11.1397 15.2509C11.0251 15.5714 11.1624 15.9207 11.4458 16.0904L11.4525 16.0944L11.4593 16.0982L11.9321 16.3614C11.9115 16.6018 11.9115 16.8401 11.9321 17.0805L11.4593 17.3437L11.4525 17.3475L11.4458 17.3516C11.1624 17.5212 11.0251 17.8705 11.1397 18.191C11.3598 18.9014 11.7356 19.5287 12.204 20.0544L12.2138 20.0653L12.2242 20.0757C12.444 20.295 12.7957 20.3643 13.0933 20.1914L13.5694 19.9264C13.7659 20.0649 13.9759 20.1876 14.2017 20.2908V20.8259C14.2017 21.1645 14.4433 21.4107 14.6771 21.504L14.716 21.5195L14.7569 21.5283C15.4938 21.6873 16.2242 21.6659 16.9061 21.5299L16.9365 21.5238L16.966 21.514C17.2243 21.4281 17.4867 21.1814 17.4867 20.8259V20.2861C17.7033 20.1839 17.9082 20.063 18.1014 19.9264L18.5773 20.1914C18.8749 20.3643 19.2266 20.295 19.4464 20.0757L19.4532 20.0689L19.4598 20.0619C19.9602 19.5227 20.3154 18.8886 20.5494 18.1884L20.5593 18.1588L20.5654 18.1282C20.619 17.8607 20.5198 17.5281 20.2248 17.3516ZM15.8442 17.6367C15.3159 17.6367 14.9161 17.2362 14.9161 16.712C14.9161 16.2017 15.32 15.7874 15.8442 15.7874C16.3547 15.7874 16.7724 16.2058 16.7724 16.712C16.7724 17.2321 16.3588 17.6367 15.8442 17.6367Z" fill="white" stroke="#A6193C"/>
</svg>
