<svg width="21" height="23" viewBox="0 0 21 23" fill="none" xmlns="http://www.w3.org/2000/svg">
<path d="M14.233 8.80561C14.233 8.56028 13.9851 8.31495 13.7372 8.31495H6.79551C6.50627 8.31495 6.29967 8.56028 6.29967 8.80561V9.01713C6.29967 9.30335 6.50627 9.50779 6.79551 9.50779H13.7372C13.9851 9.50779 14.233 9.30335 14.233 9.01713V8.80561ZM13.7372 11.7495H6.79551C6.50627 11.7495 6.29967 11.9949 6.29967 12.2402V12.4517C6.29967 12.7379 6.50627 12.9424 6.79551 12.9424H13.7372C13.9851 12.9424 14.233 12.7379 14.233 12.4517V12.2402C14.233 11.9949 13.9851 11.7495 13.7372 11.7495ZM18.1997 0.348909C17.3182 0.872274 15.4671 2.26793 14.6737 2.79129C14.6737 2.79129 13.9686 1.919 12.9108 0.697833C10.2663 2.09346 11.6663 2.79129 9.56116 0.523364L6.38782 2.56012C5.81486 2.38567 3.03819 0.34891 2.33301 0V16.704C2.33301 17.808 3.20072 18.6667 4.31634 18.6667H16.2163C17.2906 18.6667 18.1997 17.808 18.1997 16.704C18.1997 16.704 18.1997 0.839564 18.1997 0.348909ZM16.683 17.1707H3.84967V2.38131L6.56412 4.06916L9.09449 2.32462C11.0337 3.8947 9.91375 4.06916 12.2056 2.49907C12.9108 3.37134 13.4397 3.60249 14.1449 4.47477L16.683 3.01371V17.1707Z" fill="#A6193C"/>
<path d="M0 22.1666C0 21.78 0.313401 21.4666 0.7 21.4666H20.3C20.6866 21.4666 21 21.78 21 22.1666C21 22.5532 20.6866 22.8666 20.3 22.8666H0.700001C0.313401 22.8666 0 22.5532 0 22.1666Z" fill="#A6193C"/>
</svg>
