<svg width="26" height="29" viewBox="0 0 26 29" fill="none" xmlns="http://www.w3.org/2000/svg">
<path d="M21.3435 6.37175V6.65409L21.6238 6.61991C23.8057 6.3538 25.75 8.00416 25.75 10.1054V17.5647C25.692 18.4698 25.6345 19.2911 25.411 20.1091L25.4108 20.109L25.4087 20.1179L23.6693 27.5286L23.6693 27.5286L23.6685 27.5321C23.5201 28.2079 22.8692 28.75 22.1154 28.75H9.18587C8.64468 28.75 8.19098 28.4635 7.87836 28.0579L0.923959 18.5584C0.923725 18.5581 0.923491 18.5578 0.923257 18.5574C-0.216306 16.968 0.114803 14.7537 1.73152 13.6495L1.7317 13.6498L1.74165 13.6422C2.71501 12.9036 4.01468 12.7455 5.09438 13.1668L5.43527 13.2999V12.9339V5.74947C5.43527 3.43044 7.65143 1.78839 9.8763 2.3708L10.0722 2.42208L10.163 2.24111C11.4647 -0.351852 15.1497 -0.457303 16.5606 2.18996L16.6524 2.36221L16.8418 2.31494C19.1783 1.73174 21.3435 3.48078 21.3435 5.74947V6.37175ZM23.228 19.6118L23.2283 19.6119L23.2308 19.5985C23.3499 18.9595 23.409 18.2652 23.409 17.5727V10.1054C23.409 9.69639 23.2493 9.36945 22.9986 9.14746C22.7523 8.92941 22.4305 8.823 22.1154 8.823C21.7999 8.823 21.476 8.92975 21.2284 9.15786C20.9769 9.38968 20.8217 9.73083 20.8217 10.162V14.4613C20.8217 14.8266 20.5336 15.1165 20.144 15.1165H19.7382C19.3486 15.1165 19.0605 14.8267 19.0605 14.4613V5.74947C19.0605 5.32734 18.8981 4.99036 18.6427 4.76026C18.3916 4.53407 18.0631 4.42183 17.7412 4.41758C17.4191 4.41333 17.0879 4.51706 16.834 4.74354C16.5757 4.97403 16.4153 5.31614 16.4153 5.74947V14.4613C16.4153 14.8267 16.1272 15.1165 15.7376 15.1165H15.3897C15.0001 15.1165 14.712 14.8266 14.712 14.4613V3.82607C14.712 3.40382 14.5495 3.06714 14.2946 2.83638C14.0442 2.60962 13.7167 2.49563 13.396 2.48717C13.0755 2.47872 12.7445 2.57537 12.4898 2.79258C12.2298 3.01426 12.0668 3.347 12.0668 3.7695V14.4613C12.0668 14.8266 11.7787 15.1165 11.3891 15.1165H10.9832C10.5937 15.1165 10.3056 14.8266 10.3056 14.4613V5.80604C10.3056 5.38613 10.1485 5.0501 9.89974 4.81866C9.65499 4.59091 9.33399 4.47569 9.01871 4.46715C8.70358 4.45861 8.37887 4.55638 8.12967 4.77477C7.8758 4.99724 7.7183 5.3294 7.7183 5.74947V17.4596C7.7183 18.1011 6.88328 18.3772 6.49077 17.8241L6.49086 17.824L6.48639 17.8181L4.86472 15.6707C4.62148 15.3331 4.2992 15.1619 3.96285 15.1366C3.63286 15.1119 3.31216 15.2289 3.06096 15.4233C2.55885 15.8119 2.27764 16.5672 2.7789 17.2659L2.78032 17.2678L9.44799 26.3757L9.5229 26.478H9.64971H21.3616H21.5581L21.6045 26.2871L23.228 19.6118Z" fill="#A6193C" stroke="white" stroke-width="0.5"/>
</svg>
