<svg width="47" height="37" viewBox="0 0 47 37" fill="none" xmlns="http://www.w3.org/2000/svg">
<path d="M42.7645 0H3.88768C1.70086 0 0 1.81696 0 3.96429V33.0357C0 35.2656 1.70086 37 3.88768 37H42.7645C44.8703 37 46.6522 35.2656 46.6522 33.0357V3.96429C46.6522 1.81696 44.8703 0 42.7645 0ZM42.7645 33.0357H24.541C24.622 32.7054 24.622 33.3661 24.622 31.2188C24.622 28.5759 22.1112 26.4286 19.1144 26.4286C18.3045 26.4286 17.6565 27.0893 15.5507 27.0893C13.3639 27.0893 12.7969 26.4286 11.906 26.4286C8.90927 26.4286 6.47947 28.5759 6.47947 31.2188C6.47947 33.3661 6.39847 32.7054 6.47947 33.0357H3.88768V9.25H42.7645V33.0357ZM29.1576 26.4286H38.2289C38.5528 26.4286 38.8768 26.1808 38.8768 25.7679V24.4464C38.8768 24.1161 38.5528 23.7857 38.2289 23.7857H29.1576C28.7526 23.7857 28.5097 24.1161 28.5097 24.4464V25.7679C28.5097 26.1808 28.7526 26.4286 29.1576 26.4286ZM29.1576 21.1429H38.2289C38.5528 21.1429 38.8768 20.8951 38.8768 20.4821V19.1607C38.8768 18.8304 38.5528 18.5 38.2289 18.5H29.1576C28.7526 18.5 28.5097 18.8304 28.5097 19.1607V20.4821C28.5097 20.8951 28.7526 21.1429 29.1576 21.1429ZM29.1576 15.8571H38.2289C38.5528 15.8571 38.8768 15.6094 38.8768 15.1964V13.875C38.8768 13.5446 38.5528 13.2143 38.2289 13.2143H29.1576C28.7526 13.2143 28.5097 13.5446 28.5097 13.875V15.1964C28.5097 15.6094 28.7526 15.8571 29.1576 15.8571ZM15.5507 23.7857C18.3855 23.7857 20.7343 21.4732 20.7343 18.5C20.7343 15.6094 18.3855 13.2143 15.5507 13.2143C12.635 13.2143 10.3671 15.6094 10.3671 18.5C10.3671 21.4732 12.635 23.7857 15.5507 23.7857Z" fill="white"/>
</svg>
