<svg width="42" height="30" viewBox="0 0 42 30" fill="none" xmlns="http://www.w3.org/2000/svg">
<path d="M37.2039 0H3.84868C1.6838 0 0 1.71875 0 3.75V26.25C0 28.3594 1.6838 30 3.84868 30H37.2039C39.2887 30 41.0526 28.3594 41.0526 26.25V3.75C41.0526 1.71875 39.2887 0 37.2039 0ZM37.2039 3.75V6.95312C35.3598 8.4375 32.4733 10.625 26.3795 15.3125C25.0164 16.3281 22.3705 18.8281 20.5263 18.75C18.602 18.8281 15.956 16.3281 14.5929 15.3125C8.49918 10.625 5.61266 8.4375 3.84868 6.95312V3.75H37.2039ZM3.84868 26.25V11.7969C5.61266 13.2031 8.25863 15.2344 12.1875 18.2812C13.9515 19.6094 17.0785 22.5781 20.5263 22.5C23.8939 22.5781 26.9408 19.6094 28.785 18.2812C32.7138 15.2344 35.3598 13.2031 37.2039 11.7969V26.25H3.84868Z" fill="#686868"/>
</svg>
