<svg width="22" height="29" viewBox="0 0 22 29" fill="none" xmlns="http://www.w3.org/2000/svg">
<path d="M12 11.2411C12 10.9911 11.75 10.7411 11.5 10.7411H4.5C4.20833 10.7411 4 10.9911 4 11.2411V11.5C4 11.7917 4.20833 12 4.5 12H11.5C11.75 12 12 11.7917 12 11.5V11.2411ZM11.5 14.2411H4.5C4.20833 14.2411 4 14.4911 4 14.7411V15C4 15.2917 4.20833 15.5 4.5 15.5H11.5C11.75 15.5 12 15.2917 12 15V14.7411C12 14.4911 11.75 14.2411 11.5 14.2411ZM16 5.5C16 5 15.75 4.45833 15.375 4.08333L11.9167 0.625C11.5417 0.25 11 0 10.5 0H2C0.875 0 0 0.916667 0 2V19.3333C0 20.4583 0.875 21.3333 2 21.3333H14C15.0833 21.3333 16 20.4583 16 19.3333V5.5ZM10.2095 1.71277L14.2905 5.78723H10.2095V1.71277ZM14.4571 19.7872H1.54286V1.5461H9.12381V5.87943C9.12381 6.46277 9.54048 6.87943 10.1238 6.87943H14.4571V19.7872Z" fill="#A6193C"/>
<path d="M11.4224 20.6153C11.3629 20.6609 11.3051 20.7106 11.2495 20.7647L10.2825 21.6893L10.2747 21.6969L10.2669 21.7045C9.38792 22.5698 9.55683 23.9306 10.4601 24.6187C11.0176 25.0549 11.6373 25.3631 12.2913 25.5466V25.5625C12.2913 26.6592 13.1797 27.5 14.2358 27.5H15.1246C16.0917 27.5 17.0691 26.7182 17.0691 25.5625V25.4924C18.3155 25.0746 19.4204 24.1559 19.8999 22.7812C20.6774 20.6111 19.6975 18.4311 17.9283 17.3974C17.982 17.3556 18.0336 17.3107 18.0829 17.263L19.0501 16.338L19.058 16.3305L19.0657 16.3229C19.9903 15.4127 19.7063 14.0966 18.9368 13.4338L18.9089 13.4098L18.8799 13.3872C18.3336 12.9614 17.7126 12.6621 17.0691 12.4774V12.4375C17.0691 11.8319 16.7772 11.3579 16.4825 11.0678C16.1863 10.7762 15.7153 10.5 15.1246 10.5H14.2358C13.1197 10.5 12.2913 11.4285 12.2913 12.4375V12.4741C10.3581 13.1039 8.98392 14.9866 9.18651 17.1673C9.3208 18.6713 10.2224 19.8981 11.4224 20.6153Z" fill="#A6193C" stroke="white" stroke-width="3"/>
</svg>
