<svg width="27" height="27" viewBox="0 0 27 27" fill="none" xmlns="http://www.w3.org/2000/svg">
<path d="M12.593 0.95296C12.9514 0.181228 14.0486 0.181231 14.407 0.952963L17.657 7.95124C17.8027 8.26499 18.1002 8.48115 18.4437 8.52277L26.1037 9.45116C26.9484 9.55354 27.2875 10.597 26.6643 11.1763L21.0128 16.4299C20.7595 16.6654 20.6458 17.0152 20.7124 17.3546L22.1965 24.9267C22.3602 25.7617 21.4726 26.4066 20.729 25.9929L13.9862 22.2415C13.6839 22.0733 13.3161 22.0733 13.0138 22.2415L6.271 25.9929C5.52744 26.4066 4.63984 25.7617 4.8035 24.9267L6.28765 17.3546C6.35418 17.0152 6.24054 16.6654 5.98717 16.4299L0.335733 11.1763C-0.287477 10.597 0.0515592 9.55354 0.896271 9.45116L8.55634 8.52277C8.89977 8.48115 9.19728 8.26499 9.34299 7.95124L12.593 0.95296Z" fill="#565656"/>
</svg>
