<svg width="27" height="26" viewBox="0 0 27 26" fill="none" xmlns="http://www.w3.org/2000/svg">
<path d="M25.6441 8.71209L18.2718 7.64609L14.9391 0.894777C14.3837 -0.272743 12.6668 -0.323505 12.0609 0.894777L8.77871 7.64609L1.35592 8.71209C0.0430473 8.91514 -0.461904 10.5395 0.497503 11.504L5.79949 16.7324L4.53711 24.0929C4.33513 25.4127 5.749 26.4279 6.91039 25.8188L13.5252 22.3162L20.0896 25.8188C21.251 26.4279 22.6649 25.4127 22.4629 24.0929L21.2005 16.7324L26.5025 11.504C27.4619 10.5395 26.957 8.91514 25.6441 8.71209ZM18.5748 15.8695L19.7866 22.8746L13.5252 19.5751L7.21336 22.8746L8.42524 15.8695L3.32523 10.8948L10.3441 9.87961L13.5252 3.48363L16.6559 9.87961L23.6748 10.8948L18.5748 15.8695Z" fill="#A6193C"/>
</svg>
