<svg width="17" height="17" viewBox="0 0 17 17" fill="none" xmlns="http://www.w3.org/2000/svg">
<path d="M11.3333 13.8125C11.3333 14.0117 11.1784 14.1667 10.9792 14.1667H6.02083C5.82161 14.1667 5.66667 14.0117 5.66667 13.8125V12.0417C5.66667 11.8424 5.82161 11.6875 6.02083 11.6875H7.08333V8.14583H6.02083C5.82161 8.14583 5.66667 7.99089 5.66667 7.79167V6.02083C5.66667 5.82161 5.82161 5.66667 6.02083 5.66667H9.5625C9.76172 5.66667 9.91667 5.82161 9.91667 6.02083V11.6875H10.9792C11.1784 11.6875 11.3333 11.8424 11.3333 12.0417V13.8125ZM9.91667 3.89583C9.91667 4.09505 9.76172 4.25 9.5625 4.25H7.4375C7.23828 4.25 7.08333 4.09505 7.08333 3.89583V2.125C7.08333 1.92578 7.23828 1.77083 7.4375 1.77083H9.5625C9.76172 1.77083 9.91667 1.92578 9.91667 2.125V3.89583ZM17 8.5C17 3.80729 13.1927 0 8.5 0C3.80729 0 0 3.80729 0 8.5C0 13.1927 3.80729 17 8.5 17C13.1927 17 17 13.1927 17 8.5Z" fill="#565656"/>
</svg>
