<svg width="83" height="30" viewBox="0 0 83 30" fill="none" xmlns="http://www.w3.org/2000/svg">
<path d="M6.71387 3.74512V9.59446C13.4956 9.29781 15.6399 12.6586 15.6399 12.6586C14.9445 4.32076 6.71387 3.74512 6.71387 3.74512Z" fill="#565656"/>
<path d="M15.6409 12.6586C15.6409 12.6586 17.7851 9.29707 24.5669 9.59446V3.74512C24.5669 3.74512 16.3362 4.32076 15.6409 12.6586Z" fill="#565656"/>
<path d="M15.6462 12.6519C15.6462 12.6519 19.0078 14.7961 18.7104 21.5779H24.5598C24.5598 21.5779 23.9839 13.3475 15.6462 12.6519Z" fill="#565656"/>
<path d="M0.943286 29.9997H7.01076C5.78147 15.2314 15.6338 12.6521 15.6338 12.6521C-0.273252 13.3242 0.943286 29.9997 0.943286 29.9997Z" fill="#565656"/>
<path d="M24.1077 0H7.17112C6.06005 -1.90563e-09 4.99449 0.441347 4.20883 1.22696C3.42317 2.01258 2.98175 3.07812 2.98169 4.18918V16.3732C3.63367 15.5488 4.35703 14.7833 5.14339 14.0859V4.41026C5.14339 3.8141 5.38021 3.24235 5.80176 2.8208C6.22331 2.39925 6.79505 2.16243 7.39121 2.16243H23.8874C24.4835 2.16243 25.0553 2.39925 25.4768 2.8208C25.8984 3.24235 26.1352 3.8141 26.1352 4.41026V20.9054C26.1352 21.5016 25.8984 22.0733 25.4768 22.4949C25.0553 22.9164 24.4835 23.1532 23.8874 23.1532H9.1294V25.3149H24.1079C25.2189 25.3149 26.2843 24.8736 27.0699 24.0881C27.8555 23.3026 28.2969 22.2372 28.2971 21.1262V4.19015C28.2972 3.63993 28.1889 3.09507 27.9784 2.58671C27.7679 2.07834 27.4594 1.61641 27.0703 1.22731C26.6813 0.838206 26.2194 0.529546 25.7111 0.318961C25.2028 0.108377 24.6579 -8.49342e-09 24.1077 0Z" fill="#565656"/>
<path d="M37.5747 10.7794C37.8509 10.5444 38.0719 10.2516 38.2221 9.92156C38.3724 9.59156 38.4481 9.23251 38.444 8.86994C38.444 7.61512 37.5607 6.85129 36.5969 6.60592V6.56495C37.5884 6.19689 38.1182 5.43282 38.1182 4.58728C38.1287 4.23996 38.0461 3.89616 37.8789 3.59154C37.7117 3.28693 37.466 3.0326 37.1674 2.85497C36.5562 2.4322 35.782 2.26854 34.5596 2.26854C33.7402 2.26382 32.9221 2.33232 32.115 2.47319V11.5028C32.7954 11.5867 33.4804 11.6277 34.166 11.6254C35.85 11.6252 36.923 11.3386 37.5747 10.7794ZM33.7715 3.57783C34.0851 3.52168 34.4038 3.49883 34.7223 3.50962C35.7818 3.50962 36.4337 3.90516 36.4337 4.77818C36.4337 5.55551 35.7958 6.1012 34.6273 6.1012H33.7717L33.7715 3.57783ZM33.7715 7.31504H34.6001C35.7533 7.31504 36.6916 7.75155 36.6916 8.82896C36.6916 9.96109 35.7273 10.3566 34.655 10.3566C34.36 10.3677 34.0645 10.3539 33.7717 10.3157V7.31504H33.7715Z" fill="#565656"/>
<path d="M43.144 10.7934H43.1847L43.3074 11.5295H44.8149C44.7315 11.0021 44.6951 10.4684 44.7062 9.93459V7.54765C44.7062 6.0882 44.095 4.73793 41.9763 4.73793C41.1418 4.71982 40.3172 4.9221 39.5859 5.32437L39.912 6.41552C40.4503 6.09532 41.0648 5.92582 41.6911 5.92478C42.8591 5.92478 43.0358 6.64764 43.0358 7.08415V7.19309C40.5909 7.17935 39.1099 8.03864 39.1099 9.70273C39.1099 10.7122 39.8568 11.6804 41.1879 11.6804C41.5603 11.6936 41.9307 11.6204 42.27 11.4665C42.6094 11.3126 42.9085 11.0822 43.144 10.7934ZM40.7671 9.52483C40.7671 8.51538 41.8943 8.27002 43.076 8.28352V9.19727C43.0826 9.32135 43.0688 9.44568 43.0353 9.56532C42.9392 9.83654 42.7604 10.0707 42.524 10.2347C42.2875 10.3986 42.0055 10.4842 41.7179 10.4791C41.5899 10.4902 41.4611 10.4731 41.3405 10.429C41.2198 10.3849 41.1103 10.3149 41.0197 10.224C40.929 10.133 40.8594 10.0232 40.8158 9.90244C40.7721 9.78164 40.7555 9.65274 40.7671 9.52483Z" fill="#565656"/>
<path d="M49.1874 6.10127C50.0972 6.10127 50.4506 6.82412 50.4506 7.77885V11.5296H52.1211V7.58796C52.1211 5.48736 50.9259 4.73726 49.7714 4.73726C49.3491 4.72723 48.9314 4.82765 48.5598 5.02859C48.1882 5.22952 47.8755 5.52399 47.6526 5.88288H47.6119L47.5305 4.88718H46.0771C46.1044 5.46012 46.1314 6.10102 46.1314 6.86485V11.5296H47.8018V7.61445C47.798 7.43376 47.8256 7.25376 47.8833 7.08249C47.9711 6.80331 48.1441 6.55861 48.3779 6.38265C48.6118 6.2067 48.8948 6.10831 49.1874 6.10127Z" fill="#565656"/>
<path d="M56.5483 11.666C57.1896 11.6782 57.8268 11.5623 58.4227 11.325L58.1918 10.0837C57.7749 10.2592 57.3265 10.3474 56.8741 10.3428C55.7332 10.3428 54.8503 9.5652 54.8503 8.20144C54.8368 6.9876 55.5973 6.04636 56.8741 6.04636C57.3098 6.03113 57.7428 6.11996 58.1373 6.30548L58.4362 5.03692C57.9208 4.83714 57.3727 4.73536 56.8199 4.73683C54.4973 4.73683 53.1394 6.278 53.1394 8.27015C53.1389 10.3293 54.4835 11.666 56.5483 11.666Z" fill="#565656"/>
<path d="M65.4852 8.1472C65.4852 6.12856 64.1676 4.73657 62.1973 4.73657C60.2008 4.73657 58.7747 6.0731 58.7747 8.25541C58.7747 10.3967 60.228 11.6788 62.0886 11.6788C63.7746 11.6798 65.4852 10.5886 65.4852 8.1472ZM60.5006 8.2154C60.5006 7.11125 60.9759 5.95115 62.1576 5.95115C63.2985 5.95115 63.7603 7.15149 63.7603 8.18792C63.7603 9.53745 63.0949 10.4657 62.1441 10.4657C61.1395 10.4659 60.5013 9.49746 60.5013 8.2154H60.5006Z" fill="#565656"/>
<path d="M71.4066 11.6798C71.8399 11.695 72.269 11.5911 72.6473 11.3795C73.0257 11.1678 73.3388 10.8566 73.5526 10.4795H73.5796L73.6613 11.5297H75.1416C75.1144 11.0797 75.0874 10.3431 75.0874 9.66095V1.8457H73.4169V5.59641H73.3897C73.0908 5.10567 72.4389 4.73762 71.5291 4.73762C69.94 4.73762 68.5547 6.06065 68.5682 8.28394C68.5692 10.3293 69.8174 11.6798 71.4066 11.6798ZM71.9361 6.03316C72.2746 6.03255 72.6029 6.14903 72.8653 6.36285C73.1276 6.57666 73.308 6.87465 73.3757 7.20627C73.4027 7.35475 73.4164 7.50537 73.4164 7.65629V8.65199C73.4201 8.81724 73.4018 8.98225 73.3622 9.14273C73.2958 9.47612 73.1162 9.77632 72.8539 9.99255C72.5915 10.2088 72.2626 10.3277 71.9226 10.3293C70.8631 10.3293 70.2657 9.44281 70.2657 8.21523C70.2657 6.98765 70.8631 6.03292 71.9361 6.03292V6.03316Z" fill="#565656"/>
<path d="M79.4341 11.6798C81.1183 11.6798 82.8297 10.5886 82.8297 8.14647C82.8297 6.12782 81.5121 4.73584 79.5418 4.73584C77.5452 4.73584 76.1191 6.07262 76.1191 8.25493C76.1201 10.3977 77.5734 11.6798 79.4341 11.6798ZM79.502 5.95115C80.643 5.95115 81.1048 7.1515 81.1048 8.18794C81.1048 9.53747 80.4394 10.4657 79.4886 10.4657C78.4825 10.4657 77.8446 9.49722 77.8446 8.21517C77.8448 7.11052 78.3203 5.95115 79.502 5.95115Z" fill="#565656"/>
<path d="M37.725 16.3049C37.7144 17.5889 37.7688 18.8727 37.8879 20.1513H37.8606C37.4262 19.072 36.9273 18.0199 36.3666 17.0005L34.4652 13.6316H32.0476V22.8246H33.9492V20.0563C33.9492 18.5559 33.922 17.2591 33.854 16.0323H33.9082C34.3748 17.1441 34.9053 18.228 35.4972 19.2785L37.4531 22.8248H39.6263V13.6318H37.7247V16.3064L37.725 16.3049Z" fill="#565656"/>
<path d="M43.9722 15.9912C41.8262 15.9912 40.4143 17.3687 40.4143 19.5375C40.4143 21.6926 41.9084 22.9747 43.8495 22.9747C45.6286 22.9747 47.3536 21.8563 47.3536 19.4148C47.3533 17.3962 45.9952 15.9912 43.9722 15.9912ZM43.9047 21.4875C43.0214 21.4875 42.5463 20.6287 42.5463 19.4826C42.5463 18.5011 42.9266 17.4774 43.9047 17.4774C44.8417 17.4774 45.2223 18.4869 45.2223 19.4688C45.2211 20.6834 44.7183 21.4877 43.9037 21.4877L43.9047 21.4875Z" fill="#565656"/>
<path d="M49.9624 17.3826H49.9082L49.8267 16.1558H48.0601C48.1008 16.7287 48.1143 17.3696 48.1143 18.3518V22.8249H50.1788V19.4423C50.1777 19.2867 50.1913 19.1315 50.2196 18.9785C50.3552 18.3374 50.8715 17.9283 51.6321 17.9283C51.8191 17.9295 52.0055 17.9478 52.1891 17.9828V16.0324C52.0461 16.0033 51.9005 15.9895 51.7546 15.9914C51.3475 16.0052 50.9551 16.1472 50.6333 16.397C50.3116 16.6467 50.0768 16.9917 49.9624 17.3826Z" fill="#565656"/>
<path d="M59.0882 13.1406H57.0237V16.7424H56.9964C56.6975 16.2921 56.0728 15.9923 55.2445 15.9923C53.6555 15.9923 52.2564 17.3016 52.2701 19.5521C52.2701 21.6252 53.5333 22.9755 55.1088 22.9755C55.5236 22.9923 55.9353 22.8974 56.3009 22.7007C56.6664 22.5039 56.9724 22.2126 57.1868 21.8571H57.2275L57.309 22.8253H59.1427C59.1154 22.3753 59.0882 21.584 59.0882 20.8339V13.1406ZM57.0234 19.8512C57.0239 20.0112 57.0103 20.1709 56.9827 20.3285C56.9292 20.6095 56.7791 20.8629 56.5583 21.0448C56.3375 21.2267 56.06 21.3255 55.774 21.3242C54.9184 21.3242 54.3614 20.6148 54.3614 19.4839C54.3614 18.4337 54.8367 17.5879 55.7875 17.5879C56.0745 17.5907 56.3517 17.6927 56.572 17.8767C56.7924 18.0607 56.9422 18.3152 56.9962 18.5971C57.0183 18.7232 57.0274 18.8512 57.0234 18.9792V19.8522V19.8512Z" fill="#565656"/>
<path d="M63.2045 16.0054C60.8956 16.0054 59.8499 17.8741 59.8499 19.5652C59.8499 21.6508 61.1403 22.9613 63.3947 22.9613C64.2162 22.9797 65.0333 22.836 65.7993 22.5386L65.5277 21.1336C64.9373 21.3332 64.3171 21.43 63.694 21.4199C62.7297 21.4199 61.8742 21.0106 61.8197 20.1514H66.0979C66.1432 19.881 66.166 19.6072 66.1659 19.3331C66.1654 17.6827 65.3508 16.0054 63.2045 16.0054ZM61.8059 18.7331C61.8602 18.1874 62.2135 17.3836 63.0819 17.3836C64.0327 17.3836 64.2498 18.2294 64.2498 18.7331H61.8059Z" fill="#565656"/>
<path d="M69.7231 18.7465C68.9083 18.4601 68.6501 18.2964 68.6501 17.9689C68.6501 17.6413 68.9355 17.4369 69.438 17.4369C69.9407 17.453 70.4331 17.5837 70.8776 17.819L71.2307 16.3867C70.6473 16.1193 70.0119 15.9842 69.3701 15.9912C67.7261 15.9912 66.6673 16.9322 66.6673 18.187C66.6538 18.9781 67.1826 19.7282 68.5689 20.1922C69.3296 20.4513 69.5332 20.6149 69.5332 20.9695C69.5332 21.3106 69.2751 21.5152 68.6499 21.5152C68.0268 21.4917 67.4177 21.3237 66.8707 21.0245L66.5042 22.4967C67.1714 22.8242 67.907 22.9878 68.6501 22.9742C70.5517 22.9742 71.5161 22.0602 71.5161 20.8056C71.5026 19.8374 70.9863 19.1827 69.7231 18.7465Z" fill="#565656"/>
<path d="M74.5717 14.3547L72.5479 14.9139V16.155H71.6646V17.6827H72.5479V20.4104C72.5479 21.3517 72.7381 21.9926 73.1184 22.3881C73.544 22.7761 74.1046 22.9818 74.6801 22.961C75.1304 22.9715 75.5795 22.9117 76.0113 22.7837L75.9978 21.2152C75.797 21.2582 75.5918 21.2765 75.3866 21.2697C74.7754 21.2697 74.5717 20.9017 74.5717 20.0969V17.6827H76.052V16.155H74.5717V14.3545V14.3547Z" fill="#565656"/>
<path d="M79.6386 16.0054C77.3297 16.0054 76.2839 17.8741 76.2839 19.5652C76.2839 21.6508 77.5743 22.9613 79.8288 22.9613C80.6503 22.9797 81.4674 22.836 82.2334 22.5386L81.9618 21.1336C81.3714 21.3332 80.7512 21.43 80.1281 21.4199C79.1638 21.4199 78.308 21.0106 78.2538 20.1514H82.532C82.5773 19.881 82.6001 19.6072 82.6 19.3331C82.5997 17.6827 81.7849 16.0054 79.6386 16.0054ZM78.24 18.7331C78.2943 18.1874 78.6473 17.3836 79.5159 17.3836C80.4667 17.3836 80.6839 18.2294 80.6839 18.7331H78.24Z" fill="#565656"/>
</svg>
