<svg width="25" height="26" viewBox="0 0 25 26" fill="none" xmlns="http://www.w3.org/2000/svg">
<path d="M19.6337 19.2653C18.6761 19.2653 17.7785 18.897 17.1006 18.219L13.449 14.5674C13.198 14.3164 12.7424 14.3164 12.4914 14.5674L8.82475 18.234C8.1468 18.912 7.24924 19.2803 6.29166 19.2803H5.57007L10.2093 23.9195C11.6525 25.3627 14.0082 25.3627 15.4514 23.9195L20.1043 19.2666L19.6337 19.2653Z" fill="white"/>
<path d="M6.27664 6.33523C7.23422 6.33523 8.13178 6.70353 8.80972 7.38147L12.4764 11.0481C12.741 11.3127 13.1679 11.3127 13.4339 11.0481L17.1006 7.39648C17.7785 6.71853 18.6761 6.35023 19.6336 6.35023H20.0756L15.4227 1.69738C13.9796 0.254193 11.6238 0.254193 10.1806 1.69738L5.54004 6.33523H6.27664Z" fill="white"/>
<path d="M23.9179 10.1942L21.1052 7.38146C21.0465 7.41147 20.9729 7.42511 20.8992 7.42511H19.6183C18.9554 7.42511 18.3075 7.68974 17.8519 8.16171L14.1989 11.8133C13.8606 12.1516 13.4036 12.329 12.9617 12.329C12.5047 12.329 12.0627 12.1516 11.7244 11.8133L8.05781 8.14671C7.5872 7.6761 6.93927 7.41011 6.29134 7.41011H4.71583C4.64217 7.41011 4.58352 7.3951 4.52486 7.36646L1.69714 10.1942C0.253949 11.6374 0.253949 13.9931 1.69714 15.4363L4.50986 18.249C4.56851 18.219 4.62717 18.2054 4.70083 18.2054H6.27633C6.93927 18.2054 7.5872 17.9408 8.04281 17.4688L11.7094 13.8022C12.3724 13.1392 13.5359 13.1392 14.1975 13.8022L17.8491 17.4538C18.3197 17.9244 18.9677 18.1904 19.6156 18.1904H20.8965C20.9701 18.1904 21.0288 18.2054 21.1024 18.234L23.9152 15.4213C25.3611 13.9781 25.3611 11.6374 23.9179 10.1942Z" fill="white"/>
</svg>
