<svg width="20" height="20" viewBox="0 0 20 20" fill="none" xmlns="http://www.w3.org/2000/svg">
<path d="M19.5509 16.9209L14.7673 12.1368C15.4888 10.9531 15.904 9.56055 15.904 8.07305C15.904 3.74725 12.1559 4.32003e-07 7.8305 4.32003e-07C3.50512 -0.00126553 -1.2072e-07 3.50545 -1.2072e-07 7.83125C-1.2072e-07 12.1558 3.74816 15.9043 8.07227 15.9043C9.51153 15.9043 10.8571 15.5131 12.0154 14.8358L16.8243 19.6477C17.2952 20.1174 18.0585 20.1174 18.5281 19.6477L19.7218 18.4539C20.1914 17.9843 20.0205 17.3905 19.5509 16.9209ZM2.41016 7.83125C2.41016 4.83598 4.83678 2.40913 7.8305 2.40913C10.8255 2.40913 13.4939 5.07651 13.4939 8.07305C13.4939 11.067 11.066 13.4952 8.07227 13.4952C5.07729 13.4939 2.41016 10.8252 2.41016 7.83125Z" fill="#707070"/>
</svg>
