<svg width="23" height="23" viewBox="0 0 23 23" fill="none" xmlns="http://www.w3.org/2000/svg">
<path d="M0.5 9.67712V10.1771H1H9.67712H10.1771V9.67712V1V0.5H9.67712H1H0.5V1V9.67712ZM12.5695 0.5H12.0695V1V9.67712V10.1771H12.5695H21.2466H21.7466V9.67712V1V0.5H21.2466H12.5695ZM0.5 21.2466V21.7466H1H9.67712H10.1771V21.2466V12.5695V12.0695H9.67712H1H0.5V12.5695V21.2466ZM19.8004 12.0695H19.3004V12.5695V13.5157H17.4081V12.5695V12.0695H16.9081H12.5695H12.0695V12.5695V21.2466V21.7466H12.5695H15.4619H15.9619V21.2466V17.4081H16.4081V18.3542V18.8542H16.9081H21.2466H21.7466V18.3542V12.5695V12.0695H21.2466H19.8004ZM19.8004 19.3004H19.3004V19.8004V21.2466V21.7466H19.8004H21.2466H21.7466V21.2466V19.8004V19.3004H21.2466H19.8004ZM16.9081 19.3004H16.4081V19.8004V21.2466V21.7466H16.9081H18.3542H18.8542V21.2466V19.8004V19.3004H18.3542H16.9081ZM4.39237 4.39237H6.28475V6.28475H4.39237V4.39237ZM17.8542 6.28475H15.9619V4.39237H17.8542V6.28475ZM4.39237 15.9619H6.28475V17.8542H4.39237V15.9619Z" fill="white" stroke="#A6193C"/>
<rect x="11.0566" y="11.0573" width="11.9429" height="11.9429" fill="white"/>
<path d="M22.0129 17.8815L22.0061 17.8775L21.9993 17.8737L21.4901 17.5901C21.52 17.32 21.52 17.0522 21.4901 16.7821L21.9993 16.4986L22.0061 16.4948L22.0129 16.4907C22.3017 16.3178 22.4412 15.9619 22.3243 15.6359C22.0922 14.8863 21.6957 14.2243 21.2011 13.6692L21.1914 13.6583L21.181 13.6479C20.9567 13.4242 20.5985 13.3538 20.2954 13.5301L19.7733 13.8207C19.5599 13.6685 19.333 13.5345 19.0925 13.4224V12.8302C19.0925 12.4844 18.8369 12.1986 18.5077 12.1332C17.7312 11.9472 16.96 11.9693 16.2384 12.1323C15.8474 12.2065 15.6677 12.5482 15.6677 12.8302V13.4179C15.4172 13.5315 15.184 13.6695 14.9653 13.8313L14.4507 13.5328C14.1465 13.3531 13.7857 13.423 13.5603 13.6479L13.5499 13.6583L13.5401 13.6692C13.0456 14.2243 12.6491 14.8863 12.417 15.6359C12.3001 15.9619 12.4396 16.3178 12.7284 16.4907L12.7351 16.4948L12.742 16.4986L13.2609 16.7875C13.237 17.0541 13.237 17.3181 13.2609 17.5847L12.742 17.8737L12.7351 17.8775L12.7284 17.8815C12.4396 18.0544 12.3001 18.4103 12.417 18.7363C12.6491 19.4859 13.0456 20.1479 13.5401 20.703L13.5499 20.714L13.5603 20.7243C13.7845 20.948 14.1428 21.0184 14.4459 20.8422L14.9681 20.5514C15.1849 20.7057 15.4172 20.8415 15.6677 20.9546V21.542C15.6677 21.8861 15.9137 22.1377 16.1529 22.2332L16.1918 22.2487L16.2328 22.2575C17.01 22.4252 17.7808 22.4028 18.5009 22.2591L18.5314 22.253L18.5608 22.2432C18.8257 22.1552 19.0925 21.903 19.0925 21.542V20.9498C19.333 20.8378 19.5599 20.7037 19.7733 20.5515L20.2954 20.8422C20.5985 21.0184 20.9567 20.948 21.181 20.7243L21.1878 20.7176L21.1943 20.7105C21.722 20.142 22.0969 19.473 22.344 18.7336L22.3538 18.704L22.36 18.6734C22.4147 18.4005 22.3133 18.0613 22.0129 17.8815ZM17.3801 18.1885C16.8027 18.1885 16.3646 17.7498 16.3646 17.1767C16.3646 16.6184 16.8067 16.1649 17.3801 16.1649C17.9386 16.1649 18.3956 16.6225 18.3956 17.1767C18.3956 17.7457 17.9427 18.1885 17.3801 18.1885Z" fill="white" stroke="#A6193C"/>
</svg>
