<svg width="35" height="28" viewBox="0 0 35 28" fill="none" xmlns="http://www.w3.org/2000/svg">
<path d="M34.6724 25.7534L2.02028 0.164384C1.85647 0.0547945 1.63807 0 1.47426 0C1.14665 0 0.928237 0.109589 0.764431 0.273973L0.218409 0.986301C0.109204 1.15068 0 1.31507 0 1.53425C0 1.80822 0.163807 2.08219 0.382215 2.19178L33.0343 27.8356C33.1435 27.9452 33.3619 28 33.5257 28C33.8534 28 34.0718 27.8904 34.2356 27.6712L34.7816 27.0137C34.8908 26.8493 35 26.6849 35 26.4658C35 26.1918 34.8362 25.9178 34.6724 25.7534ZM16.2168 8L23.5881 13.7534C23.4789 10.4658 20.8034 7.83562 17.5273 7.83562C17.0905 7.89041 16.6537 7.89041 16.2168 8ZM18.7832 20L11.4119 14.2466C11.5211 17.5342 14.1966 20.1096 17.5273 20.1096C17.9095 20.1096 18.3463 20.1096 18.7832 20ZM17.5273 6.08219C22.8783 6.08219 27.8471 9.09589 30.468 13.9726C29.8128 15.2329 29.0484 16.3288 28.0655 17.3151L30.1404 18.9041C31.2871 17.6986 32.2699 16.3288 33.0343 14.7945C33.1435 14.5753 33.2527 14.3014 33.2527 14.0274C33.2527 13.6986 33.1435 13.4247 33.0343 13.2055C30.0858 7.39726 24.1888 3.45205 17.5273 3.45205C15.507 3.45205 13.5959 3.83562 11.7941 4.49315L14.3058 6.52055C15.3432 6.24658 16.4353 6.08219 17.5273 6.08219ZM17.5273 21.863C12.1217 21.863 7.15289 18.8493 4.53198 13.9726C5.18721 12.7671 5.95164 11.6712 6.93448 10.6849L4.85959 9.09589C3.71295 10.3014 2.73011 11.6712 1.96568 13.2055C1.85647 13.4247 1.80187 13.6986 1.80187 13.9726C1.80187 14.3014 1.85647 14.5753 1.96568 14.7945C4.9142 20.6027 10.8112 24.4931 17.5273 24.4931C19.493 24.4931 21.4041 24.1096 23.2059 23.5068L20.6942 21.4795C19.6568 21.7534 18.5647 21.863 17.5273 21.863Z" fill="#565656"/>
</svg>
