<svg width="31" height="21" viewBox="0 0 31 21" fill="none" xmlns="http://www.w3.org/2000/svg">
<path d="M15.527 4.375C14.9339 4.42969 14.3409 4.48437 13.8017 4.64844C14.0713 5.08594 14.1791 5.63281 14.233 6.125C14.233 7.82031 12.8313 9.1875 11.2139 9.1875C10.6748 9.1875 10.1357 9.07812 9.75826 8.80469C9.59652 9.35156 9.4887 9.89844 9.4887 10.5C9.4887 13.8906 12.1843 16.625 15.527 16.625C18.8696 16.625 21.5652 13.8906 21.5652 10.5C21.5652 7.16406 18.8696 4.42969 15.527 4.42969V4.375ZM30.8383 9.73437C27.927 3.9375 22.1043 0 15.527 0C8.89565 0 3.07304 3.9375 0.161739 9.73437C0.053913 9.95312 0 10.2266 0 10.5C0 10.8281 0.053913 11.1016 0.161739 11.3203C3.07304 17.1172 8.89565 21 15.527 21C22.1043 21 27.927 17.1172 30.8383 11.3203C30.9461 11.1016 31 10.8281 31 10.5547C31 10.2266 30.9461 9.95312 30.8383 9.73437ZM15.527 18.375C10.1896 18.375 5.28348 15.3672 2.69565 10.5C5.28348 5.63281 10.1896 2.625 15.527 2.625C20.8104 2.625 25.7165 5.63281 28.3043 10.5C25.7165 15.3672 20.8104 18.375 15.527 18.375Z" fill="#565656"/>
</svg>
