<svg width="55" height="54" viewBox="0 0 55 54" fill="none" xmlns="http://www.w3.org/2000/svg">
<path d="M54.8438 18.668C54.8438 8.33203 46.3815 0 35.8841 0C25.4938 0.105469 17.1387 8.33203 17.1387 18.5625C17.1387 20.6719 17.46 22.5703 17.9956 24.4688L0.749817 41.4492C0.214233 41.9766 0 42.6094 0 43.2422V51.4688C0 52.9453 1.07117 54 2.5708 54H14.5679C15.9604 54 17.1387 52.9453 17.1387 51.4688V47.25H21.4233C22.8159 47.25 23.9941 46.1953 23.9941 44.7188V40.5H27.9575C28.7073 40.5 29.35 40.1836 29.8856 39.6562L32.4564 36.8086C33.5275 37.0195 34.7058 37.125 35.9912 37.125C46.3815 37.125 54.8438 28.8984 54.8438 18.668ZM35.9912 13.5C35.9912 10.7578 38.2407 8.4375 41.1328 8.4375C43.9178 8.4375 46.2744 10.7578 46.2744 13.5C46.2744 16.3477 43.9178 18.5625 41.1328 18.5625C38.2407 18.5625 35.9912 16.3477 35.9912 13.5Z" fill="white"/>
</svg>
