<svg width="54" height="54" viewBox="0 0 54 54" fill="none" xmlns="http://www.w3.org/2000/svg">
<path d="M0 23.1429H23.1429V0H0V23.1429ZM7.71429 7.71429H15.4286V15.4286H7.71429V7.71429ZM30.8571 0V23.1429H54V0H30.8571ZM46.2857 15.4286H38.5714V7.71429H46.2857V15.4286ZM0 54H23.1429V30.8571H0V54ZM7.71429 38.5714H15.4286V46.2857H7.71429V38.5714ZM50.1429 30.8571V34.7143H42.4286V30.8571H30.8571V54H38.5714V42.4286H42.4286V46.2857H54V30.8571H50.1429ZM50.1429 50.1429V54H54V50.1429H50.1429ZM42.4286 50.1429V54H46.2857V50.1429H42.4286Z" fill="white"/>
</svg>
