<svg width="47" height="54" viewBox="0 0 47 54" fill="none" xmlns="http://www.w3.org/2000/svg">
<path d="M45.1632 50.625H43.0915V2.53125C43.0915 1.16016 41.9521 0 40.6055 0H5.80078C4.35059 0 3.31473 1.16016 3.31473 2.53125V50.625H1.24302C0.517927 50.625 0 51.2578 0 51.8906V54H46.4062V51.8906C46.4062 51.2578 45.7847 50.625 45.1632 50.625ZM13.2589 8.01562C13.2589 7.38281 13.7769 6.75 14.502 6.75H18.6454C19.2669 6.75 19.8884 7.38281 19.8884 8.01562V12.2344C19.8884 12.9727 19.2669 13.5 18.6454 13.5H14.502C13.7769 13.5 13.2589 12.9727 13.2589 12.2344V8.01562ZM13.2589 18.1406C13.2589 17.5078 13.7769 16.875 14.502 16.875H18.6454C19.2669 16.875 19.8884 17.5078 19.8884 18.1406V22.3594C19.8884 23.0977 19.2669 23.625 18.6454 23.625H14.502C13.7769 23.625 13.2589 23.0977 13.2589 22.3594V18.1406ZM18.6454 33.75H14.502C13.7769 33.75 13.2589 33.2227 13.2589 32.4844V28.2656C13.2589 27.6328 13.7769 27 14.502 27H18.6454C19.2669 27 19.8884 27.6328 19.8884 28.2656V32.4844C19.8884 33.2227 19.2669 33.75 18.6454 33.75ZM26.5179 50.625H19.8884V41.7656C19.8884 41.1328 20.4063 40.5 21.1314 40.5H25.2748C25.8963 40.5 26.5179 41.1328 26.5179 41.7656V50.625ZM33.1473 32.4844C33.1473 33.2227 32.5258 33.75 31.9043 33.75H27.7609C27.0358 33.75 26.5179 33.2227 26.5179 32.4844V28.2656C26.5179 27.6328 27.0358 27 27.7609 27H31.9043C32.5258 27 33.1473 27.6328 33.1473 28.2656V32.4844ZM33.1473 22.3594C33.1473 23.0977 32.5258 23.625 31.9043 23.625H27.7609C27.0358 23.625 26.5179 23.0977 26.5179 22.3594V18.1406C26.5179 17.5078 27.0358 16.875 27.7609 16.875H31.9043C32.5258 16.875 33.1473 17.5078 33.1473 18.1406V22.3594ZM33.1473 12.2344C33.1473 12.9727 32.5258 13.5 31.9043 13.5H27.7609C27.0358 13.5 26.5179 12.9727 26.5179 12.2344V8.01562C26.5179 7.38281 27.0358 6.75 27.7609 6.75H31.9043C32.5258 6.75 33.1473 7.38281 33.1473 8.01562V12.2344Z" fill="white"/>
</svg>
