<svg width="54" height="54" viewBox="0 0 54 54" fill="none" xmlns="http://www.w3.org/2000/svg">
<path d="M34.4428 19.5572C33.8094 18.9238 33.0704 18.2903 32.3314 17.7625C31.5924 17.2346 30.7478 17.3402 30.1144 17.868L27.8974 20.085C27.0528 21.0352 26.6305 22.1965 26.6305 23.2522C26.6305 23.8856 26.9472 24.3079 27.3695 24.6246C27.6862 24.8358 28.1085 25.1525 28.5308 25.4692C31.4868 28.5308 31.4868 33.2815 28.5308 36.2375L21.3519 43.3109C18.3959 46.3724 13.5396 46.3724 10.5836 43.3109C7.62757 40.3548 7.73314 35.4985 10.6891 32.5425L12.0616 31.1701C12.5894 30.7478 12.695 30.0088 12.4839 29.3754C11.8504 27.5806 11.5337 25.6804 11.4282 23.8856C11.4282 22.4076 9.63343 21.6686 8.57771 22.7243L4.67155 26.6305C-1.55718 32.8592 -1.55718 43.0997 4.67155 49.3284C10.9003 55.5572 21.1408 55.5572 27.3695 49.3284L34.4428 42.2551C34.4428 42.2551 34.4428 42.2551 34.4428 42.1496C40.6716 36.0264 40.7771 25.8915 34.4428 19.5572ZM49.3284 4.67155C43.0997 -1.55718 32.8592 -1.55718 26.6305 4.67155L19.5572 11.7449C19.5572 11.7449 19.5572 11.7449 19.5572 11.8504C13.3284 17.9736 13.2229 28.1085 19.5572 34.4428C20.1906 35.0762 20.9296 35.7097 21.6686 36.2375C22.4076 36.7654 23.2522 36.6598 23.8856 36.132L26.1026 33.915C26.9472 32.9648 27.3695 31.8035 27.3695 30.7478C27.3695 30.1144 27.0528 29.6921 26.6305 29.3754C26.3138 29.1642 25.8915 28.8475 25.4692 28.5308C22.5132 25.4692 22.5132 20.7185 25.4692 17.7625L32.6481 10.6891C35.6041 7.62757 40.4604 7.62757 43.4164 10.6891C46.3724 13.6452 46.2669 18.5015 43.3109 21.4575L41.9384 22.8299C41.4106 23.2522 41.305 23.9912 41.5161 24.6246C42.1496 26.4194 42.4663 28.3196 42.5718 30.1144C42.5718 31.5924 44.3666 32.3314 45.4223 31.2757L49.3284 27.3695C55.5572 21.1408 55.5572 10.9003 49.3284 4.67155Z" fill="white"/>
</svg>
