<svg width="30" height="31" viewBox="0 0 30 31" fill="none" xmlns="http://www.w3.org/2000/svg">
<path d="M12.7925 15.3982C12.7925 17.741 10.9103 19.5989 8.71103 19.5989C6.4721 19.5989 4.62959 17.7469 4.62959 15.3982C4.62959 13.0902 6.47783 11.1976 8.71103 11.1976C10.9046 11.1976 12.7925 13.0961 12.7925 15.3982ZM8.71103 23.8277C9.8889 23.8277 11.0066 23.5462 12.0198 23.0847H12.1591C14.4888 23.0847 16.4221 25.0296 16.4221 27.4711V28.7712C16.4221 29.481 15.8634 30.0001 15.2443 30.0001H2.17776C1.52678 30.0001 1 29.4947 1 28.7712V27.4711C1 25.0182 2.899 23.0847 5.21754 23.0847H5.35686C6.37313 23.5475 7.49358 23.8277 8.71103 23.8277ZM25.1331 16.1412C25.1331 18.0719 23.6082 19.5989 21.7776 19.5989C19.947 19.5989 18.4221 18.0719 18.4221 16.1412C18.4221 14.2105 19.947 12.6835 21.7776 12.6835C23.6082 12.6835 25.1331 14.2105 25.1331 16.1412ZM21.7776 23.4562C22.5286 23.4562 23.2643 23.315 23.9445 23.0847H23.9553C26.1489 23.0847 28.0368 24.9832 28.0368 27.2854C28.0368 27.9951 27.4781 28.5142 26.859 28.5142H19.8739V27.4711C19.8739 25.8837 19.389 24.4272 18.6112 23.217C18.9127 23.134 19.2317 23.0878 19.5657 23.0849C20.2495 23.3162 20.9881 23.4562 21.7776 23.4562Z" fill="#F6F6F6" stroke="#A6193C" stroke-width="2"/>
<path d="M13.1461 6.38235C13.1461 6.38235 17.9161 2.89005 19.9357 9.67467L22.0415 9.09108C18.5339 -0.507865 11.6601 5.11682 11.6601 5.11682L10.8057 4.38914C10.4156 4.05694 9.8 4.36588 9.84134 4.88178L10.0969 7.85548C10.1059 8.1836 10.3845 8.42088 10.7099 8.37751L13.6863 8.15633C14.2022 8.115 14.4092 7.45804 14.0191 7.12584L13.1461 6.38235Z" fill="#A6193C"/>
</svg>
