<svg width="29" height="22" viewBox="0 0 29 22" fill="none" xmlns="http://www.w3.org/2000/svg">
<path d="M26.5068 17.1468L26.2957 17.3528L26.4302 17.6154C26.8227 18.3817 27.3039 19.0661 27.6838 19.5564C27.8745 19.8024 28.0411 20.0013 28.1606 20.1394C28.2204 20.2085 28.2685 20.2625 28.3021 20.2996C28.3188 20.3181 28.332 20.3325 28.3411 20.3424L28.3518 20.3539L28.3548 20.3571L28.3557 20.3581L28.356 20.3584L28.3561 20.3586C28.3562 20.3586 28.3562 20.3587 28.6478 20.0848L28.3562 20.3587L28.3622 20.365L28.3684 20.3711C28.5849 20.5823 28.6282 20.8911 28.5302 21.1578C28.3933 21.4483 28.1369 21.6 27.8428 21.6C25.2245 21.6 23.1333 20.6538 21.7104 19.7918L21.5763 19.7106L21.4227 19.7421C20.4947 19.9328 19.5154 20.0286 18.5347 20.0286C14.2636 20.0286 10.7431 18.1118 9.22106 15.4657L9.13257 15.3119L8.95911 15.2743C8.72078 15.2226 8.47172 15.1842 8.23688 15.148L8.23085 15.1471C7.98947 15.1099 7.76277 15.0748 7.55032 15.0287L7.39458 14.995L7.25828 15.0775C5.82844 15.9437 3.73888 16.9348 1.17626 16.9348C0.850918 16.9348 0.583581 16.7522 0.43897 16.4905C0.344999 16.1838 0.42813 15.8739 0.600307 15.7059L0.720919 15.5882V15.5524C0.742526 15.5261 0.768521 15.4947 0.799212 15.4577L0.814453 15.4393C0.931367 15.2982 1.09809 15.0964 1.29069 14.8489C1.6749 14.3551 2.16705 13.6733 2.58387 12.9106L2.72933 12.6444L2.51225 12.4325C1.16584 11.1184 0.419034 9.54735 0.419034 7.85714C0.419034 5.85049 1.50469 3.99508 3.32237 2.62769C5.13994 1.26038 7.67 0.4 10.4844 0.4C14.7035 0.4 18.2706 2.36407 19.7436 5.05373L19.8439 5.23702L20.0517 5.25932C24.9793 5.78836 28.6 8.93369 28.6 12.5714C28.6 14.3074 27.8057 15.879 26.5068 17.1468ZM3.62373 14.3349L3.28698 15.1566L4.12551 14.8643C4.8521 14.611 5.63893 14.254 6.37854 13.7397L7.08278 13.2949L7.92417 13.5002C8.77386 13.7075 9.61509 13.7571 10.4844 13.7571C12.721 13.7571 14.8134 13.1108 16.357 12.0613C17.896 11.015 18.9347 9.53143 18.9347 7.85714C18.9347 6.20633 17.8947 4.72328 16.358 3.67208C14.8151 2.6167 12.7227 1.95714 10.4844 1.95714C8.22164 1.95714 6.1287 2.61635 4.59125 3.67254C3.05923 4.725 2.03411 6.20831 2.03411 7.85714C2.03411 9.43699 2.92552 10.6144 3.61384 11.2863L4.66346 12.3107L4.04608 13.556C3.90132 13.7915 3.73651 14.0597 3.62373 14.3349ZM24.9928 18.3126L24.9854 18.2945L24.9763 18.2773L24.311 17.0193L25.3549 16.0005C26.0338 15.3379 26.9849 14.1592 26.9849 12.5714C26.9849 11.2232 26.2936 10.005 25.2159 9.04408C24.1382 8.08311 22.6523 7.35672 20.9886 6.97614L20.4994 6.86424V7.36607C20.4994 7.49787 20.5165 7.61025 20.5295 7.6923C20.5438 7.78347 20.5497 7.82185 20.5497 7.85714C20.5497 11.5435 16.8794 14.7381 11.8513 15.2674L11.0043 15.3565L11.6138 15.9514C13.1597 17.4602 15.7315 18.4714 18.5347 18.4714C19.3527 18.4714 20.2446 18.4219 21.0949 18.2145L21.0949 18.2145L21.0996 18.2133L21.8942 18.0092L22.6529 18.4618C23.3645 18.9081 24.1008 19.3208 24.9014 19.5813L25.9353 19.9176L25.3659 18.9914C25.2111 18.7395 25.0788 18.5224 24.9928 18.3126Z" fill="#A6193C" stroke="white" stroke-width="0.8"/>
</svg>
