<svg width="23" height="27" viewBox="0 0 23 27" fill="none" xmlns="http://www.w3.org/2000/svg">
<path d="M20.5357 3.33871H18.0714V0.626008C18.0714 0.313004 17.7634 0 17.4554 0H15.4018C15.0424 0 14.7857 0.313004 14.7857 0.626008V3.33871H8.21429V0.626008C8.21429 0.313004 7.90625 0 7.59821 0H5.54464C5.18527 0 4.92857 0.313004 4.92857 0.626008V3.33871H2.46429C1.07813 3.33871 0 4.48639 0 5.84274V24.2056C0 25.6142 1.07813 26.7097 2.46429 26.7097H20.5357C21.8705 26.7097 23 25.6142 23 24.2056V5.84274C23 4.48639 21.8705 3.33871 20.5357 3.33871ZM20.2277 24.2056H2.77232C2.56696 24.2056 2.46429 24.1013 2.46429 23.8926V8.34677H20.5357V23.8926C20.5357 24.1013 20.3817 24.2056 20.2277 24.2056Z" fill="#565656"/>
<path d="M11.0001 10.7095C7.68561 10.7095 4.97597 13.4192 5.00016 16.7337C5.00016 20.024 7.68561 22.7095 11.0001 22.7095C12.5243 22.7095 13.9517 22.1288 15.0162 21.1853C15.1371 21.0643 15.1371 20.8708 15.0162 20.7498L14.0484 19.7821C13.9517 19.6853 13.7823 19.6853 13.6613 19.7821C12.9113 20.4353 11.992 20.774 11.0001 20.774C8.72592 20.774 6.93562 18.9595 6.93562 16.7579C6.91143 14.4353 8.7985 12.645 11.0243 12.6692C12.0404 12.6692 13.0081 13.0562 13.7581 13.7579L12.742 14.774C12.3791 15.1369 12.6452 15.7417 13.1533 15.7417H16.4194C16.7339 15.7417 17 15.4998 17 15.1611V11.9192C17 11.4111 16.371 11.145 16.0081 11.5079L15.1371 12.3788C14.0484 11.3627 12.5968 10.7337 11.0001 10.7095Z" fill="#565656"/>
</svg>
