<svg width="25" height="25" viewBox="0 0 25 25" fill="none" xmlns="http://www.w3.org/2000/svg">
<path d="M24.1629 5.46875L19.5312 0.837054C19.029 0.334821 18.3594 0 17.6339 0H2.67857C1.17187 0 0 1.22768 0 2.67857V22.3214C0 23.8281 1.17187 25 2.67857 25H22.3214C23.7723 25 25 23.8281 25 22.3214V7.36607C25 6.64062 24.6652 5.97098 24.1629 5.46875ZM15.1786 2.67857V7.14286H8.03571V2.67857H15.1786ZM21.9866 22.3214H3.01339C2.79018 22.3214 2.67857 22.2098 2.67857 21.9866V3.01339C2.67857 2.84598 2.79018 2.67857 3.01339 2.67857H5.35714V8.48214C5.35714 9.26339 5.91518 9.82143 6.69643 9.82143H16.5179C17.2433 9.82143 17.8571 9.26339 17.8571 8.48214V2.90179L22.2098 7.31027C22.2656 7.36607 22.3214 7.42187 22.3214 7.53348V21.9866C22.3214 22.2098 22.154 22.3214 21.9866 22.3214ZM12.5 11.1607C9.76562 11.1607 7.58929 13.3929 7.58929 16.0714C7.58929 18.8058 9.76562 20.9821 12.5 20.9821C15.1786 20.9821 17.4107 18.8058 17.4107 16.0714C17.4107 13.3929 15.1786 11.1607 12.5 11.1607ZM12.5 18.3036C11.2165 18.3036 10.2679 17.3549 10.2679 16.0714C10.2679 14.8437 11.2165 13.8393 12.5 13.8393C13.7277 13.8393 14.7321 14.8437 14.7321 16.0714C14.7321 17.3549 13.7277 18.3036 12.5 18.3036Z" fill="#565656"/>
</svg>
