<svg width="13" height="22" viewBox="0 0 13 22" fill="none" xmlns="http://www.w3.org/2000/svg">
<path d="M12.609 11.8578L3.12782 21.6468C2.89975 21.8823 2.62281 22 2.29699 22C1.97118 22 1.69424 21.8823 1.46617 21.6468L0.390978 20.5367C0.162908 20.3012 0.032582 20.0153 5.41063e-07 19.6789C5.31814e-07 19.3425 0.114036 19.0566 0.342106 18.8211L7.91729 11L0.342105 3.1789C0.114035 2.94342 7.30666e-08 2.65749 6.38177e-08 2.3211C0.0325815 1.98471 0.162907 1.69878 0.390978 1.4633L1.46617 0.353211C1.69424 0.117737 1.97118 0 2.29699 0C2.62281 0 2.89975 0.117737 3.12782 0.353211L12.609 10.1422C12.8697 10.3777 13 10.6636 13 11C13 11.3364 12.8697 11.6223 12.609 11.8578Z" fill="#A6193C"/>
</svg>
